<?xml version="1.0" encoding="UTF-8"?>
<svg width="29px" height="44px" viewBox="0 0 29 44" version="1.1" xmlns="http://www.w3.org/2000/svg" xmlns:xlink="http://www.w3.org/1999/xlink">
    <!-- Generator: Sketch 51.3 (57544) - http://www.bohemiancoding.com/sketch -->
    <title>bubble_tea_cup</title>
    <desc>Created with Sketch.</desc>
    <defs>
        <polygon id="path-1" points="0.678769231 0.319578947 29.008 0.319578947 29.008 43.631 0.678769231 43.631"></polygon>
    </defs>
    <g id="Page-1" stroke="none" stroke-width="1" fill="none" fill-rule="evenodd">
        <g id="Desktop-HD" transform="translate(-259.000000, -1592.000000)">
            <g id="menu" transform="translate(0.000000, 1426.000000)">
                <g id="bubble-tea-group" transform="translate(259.000000, 166.000000)">
                    <g id="header">
                        <g id="bubble_tea_cup">
                            <path d="M7.7,28 C7.314,28 7,28.314 7,28.7 C7,29.084 7.314,29.398 7.7,29.398 C8.086,29.398 8.4,29.084 8.4,28.7 C8.4,28.314 8.086,28 7.7,28" id="Fill-9" fill="#FFFFFF"></path>
                            <path d="M11.5,33.3325382 C11.0419847,33.3325382 10.6674618,32.9580153 10.6674618,32.5 C10.6674618,32.0395992 11.0419847,31.6650763 11.5,31.6650763 C11.9604008,31.6650763 12.3349237,32.0395992 12.3349237,32.5 C12.3349237,32.9580153 11.9604008,33.3325382 11.5,33.3325382 M11.5,30 C10.1211832,30 9,31.1211832 9,32.5 C9,33.8788168 10.1211832,35 11.5,35 C12.8788168,35 14,33.8788168 14,32.5 C14,31.1211832 12.8788168,30 11.5,30" id="Fill-11" fill="#FFFFFF"></path>
                            <path d="M18.5,38.3333333 C18.0419847,38.3333333 17.6674618,37.958989 17.6674618,37.4988078 C17.6674618,37.041011 18.0419847,36.6666667 18.5,36.6666667 C18.9604008,36.6666667 19.3349237,37.041011 19.3349237,37.4988078 C19.3349237,37.958989 18.9604008,38.3333333 18.5,38.3333333 M18.5,35 C17.1211832,35 16,36.1206485 16,37.4988078 C16,38.8793515 17.1211832,40 18.5,40 C19.8788168,40 21,38.8793515 21,37.4988078 C21,36.1206485 19.8788168,35 18.5,35" id="Fill-13" fill="#FFFFFF"></path>
                            <path d="M19.5,31.3333333 C19.0395992,31.3333333 18.6650763,30.958989 18.6650763,30.4988078 C18.6650763,30.041011 19.0395992,29.6666667 19.5,29.6666667 C19.9580153,29.6666667 20.3325382,30.041011 20.3325382,30.4988078 C20.3325382,30.958989 19.9580153,31.3333333 19.5,31.3333333 M19.5,28 C18.1211832,28 17,29.1230329 17,30.4988078 C17,31.8793515 18.1211832,33 19.5,33 C20.8788168,33 22,31.8793515 22,30.4988078 C22,29.1230329 20.8788168,28 19.5,28" id="Fill-15" fill="#FFFFFF"></path>
                            <g id="Group-19">
                                <mask id="mask-2" fill="white">
                                    <use xlink:href="#path-1"></use>
                                </mask>
                                <g id="Clip-18"></g>
                                <path d="M27.3411538,14.0239474 C27.3411538,14.4912105 26.9691538,14.8713158 26.5065385,14.8713158 L3.17784615,14.8713158 C2.71761538,14.8713158 2.34561538,14.4912105 2.34561538,14.0239474 C2.34561538,13.5566842 2.71761538,13.1765789 3.17784615,13.1765789 L26.5065385,13.1765789 C26.9667692,13.1765789 27.3411538,13.5566842 27.3411538,14.0239474 Z M22.5218462,41.1954211 C22.4717692,41.6191053 22.1164615,41.9411053 21.6943846,41.9411053 L13.8656923,41.9411053 C13.9586923,41.6747895 14.0087692,41.3915263 14.0087692,41.0961579 C14.0087692,39.6967895 12.888,38.5564737 11.5096923,38.5564737 C10.1313846,38.5564737 9.01061538,39.6967895 9.01061538,41.0961579 C9.01061538,41.3915263 9.06069231,41.6747895 9.15369231,41.9411053 L7.99238462,41.9411053 C7.56792308,41.9411053 7.215,41.6191053 7.16492308,41.193 L5.28346154,25.0155263 C5.81761538,24.7879474 6.33507692,24.5821579 6.82869231,24.4005789 L7.00038462,25.9791053 C7.05284615,26.4439474 7.46538462,26.7780526 7.92084615,26.7272105 C8.37869231,26.6763684 8.71015385,26.2575263 8.65769231,25.7926842 L8.44546154,23.8558421 C9.69261538,23.483 10.7132308,23.3062632 11.4858462,23.3280526 C12.9452308,23.3740526 13.9658462,24.0567895 15.1700769,24.8872105 C16.5221538,25.8217368 17.8456154,26.7126842 19.8415385,26.7126842 C21.1053846,26.7126842 22.6148462,26.3301579 24.3365385,25.5772105 L22.5218462,41.1954211 Z M10.6774615,41.0961579 C10.6774615,40.6288947 11.0494615,40.2487895 11.5096923,40.2487895 C11.9699231,40.2487895 12.3419231,40.6288947 12.3419231,41.0961579 C12.3419231,41.561 11.9699231,41.9411053 11.5096923,41.9411053 C11.0494615,41.9411053 10.6774615,41.561 10.6774615,41.0961579 Z M12.3419231,21.7156316 C12.0772308,21.6720526 11.8101538,21.6454211 11.5335385,21.6381579 C10.6536154,21.6115263 9.55430769,21.7858421 8.25946154,22.149 L7.91607692,19.0064737 C7.866,18.5416316 7.45346154,18.2099474 6.99561538,18.2607895 C6.53776923,18.3116316 6.20869231,18.7280526 6.25876923,19.1928947 L6.64030769,22.6719474 C6.13953846,22.8511053 5.61969231,23.0496316 5.08076923,23.2723684 L4.29861538,16.5612105 L12.3419231,16.5612105 L12.3419231,21.7156316 Z M25.3857692,16.5612105 L24.5654615,23.6113158 C22.6887692,24.5361579 21.0624615,25.0203684 19.8415385,25.0203684 C18.8304615,25.0203684 18.0387692,24.6959474 17.3424615,24.2940526 L17.3424615,16.5612105 L25.3857692,16.5612105 Z M15.6756154,16.5612105 L15.6756154,23.1948947 C15.1581538,22.8438421 14.6144615,22.5000526 14.0087692,22.2240526 L14.0087692,16.5612105 L15.6756154,16.5612105 Z M14.0087692,11.4866842 L15.6756154,11.4866842 L15.6756154,2.01068421 L14.0087692,2.01068421 L14.0087692,11.4866842 Z M16.5102308,0.318368421 L13.1765385,0.318368421 C12.7163077,0.318368421 12.3419231,0.698473684 12.3419231,1.16573684 L12.3419231,11.4866842 L3.17784615,11.4866842 C1.79715385,11.4866842 0.678769231,12.6221579 0.678769231,14.0239474 C0.678769231,15.2272105 1.50623077,16.2367895 2.61507692,16.4958421 C2.77961538,17.9266842 5.34307692,39.9606842 5.51,41.3915263 C5.65784615,42.6698421 6.72376923,43.631 7.99238462,43.631 L21.6943846,43.631 C22.9606154,43.631 24.0289231,42.6698421 24.1767692,41.3915263 L27.0716923,16.4958421 C28.1638462,16.2440526 29.008,15.2465789 29.008,14.0239474 C29.008,12.6245789 27.8872308,11.4866842 26.5065385,11.4866842 L17.3424615,11.4866842 L17.3424615,1.16573684 C17.3424615,0.698473684 16.9680769,0.318368421 16.5102308,0.318368421 Z" id="Fill-17" fill="#FFFFFF" mask="url(#mask-2)"></path>
                            </g>
                        </g>
                    </g>
                </g>
            </g>
        </g>
    </g>
</svg>