<?xml version="1.0" encoding="UTF-8"?>
<svg width="29px" height="56px" viewBox="0 0 29 56" version="1.1" xmlns="http://www.w3.org/2000/svg" xmlns:xlink="http://www.w3.org/1999/xlink">
    <!-- Generator: Sketch 51.3 (57544) - http://www.bohemiancoding.com/sketch -->
    <title>creamy_foam_tea_cup</title>
    <desc>Created with Sketch.</desc>
    <defs>
        <polygon id="path-1" points="0 0.639337143 28.71 0.639337143 28.71 31.9983467 0 31.9983467"></polygon>
    </defs>
    <g id="Page-1" stroke="none" stroke-width="1" fill="none" fill-rule="evenodd">
        <g id="Desktop-HD" transform="translate(-739.000000, -1579.000000)">
            <g id="menu" transform="translate(0.000000, 1426.000000)">
                <g id="bubble-tea-group" transform="translate(738.000000, 153.000000)">
                    <g id="header">
                        <g id="creamy_foam_tea_cup" transform="translate(1.000000, 0.000000)">
                            <g id="Group-3" transform="translate(0.000000, 24.000000)">
                                <mask id="mask-2" fill="white">
                                    <use xlink:href="#path-1"></use>
                                </mask>
                                <g id="Clip-2"></g>
                                <path d="M27.0219583,3.11461333 C27.0219583,3.57046095 26.6449583,3.94128 26.176125,3.94128 L2.533875,3.94128 C2.06745833,3.94128 1.69045833,3.57046095 1.69045833,3.11461333 C1.69045833,2.65876571 2.06745833,2.28794667 2.533875,2.28794667 L26.176125,2.28794667 C26.6425417,2.28794667 27.0219583,2.65876571 27.0219583,3.11461333 M7.87229167,12.7063086 C9.13620833,12.3425752 10.168125,12.1701562 10.9535417,12.1914133 C12.4325417,12.2362895 13.466875,12.9023467 14.6872917,13.71248 C16.0575417,14.6241752 17.3987917,15.4933562 19.4215417,15.4933562 C20.702375,15.4933562 22.232125,15.1201752 23.9769583,14.3856229 L22.137875,29.6222705 C22.087125,30.0356038 21.7270417,30.3497371 21.2992917,30.3497371 L13.3677917,30.3497371 L8.59004167,30.3497371 L7.413125,30.3497371 C6.985375,30.3497371 6.62529167,30.0356038 6.57454167,29.6199086 L4.66779167,13.837661 C5.21154167,13.6156419 5.731125,13.41488 6.231375,13.2377371 M15.199625,5.58988952 L25.0402917,5.58988952 L24.2089583,12.4677562 C22.3094583,13.3700038 20.658875,13.8423848 19.4215417,13.8423848 C18.396875,13.8423848 17.8072083,13.6298133 15.199625,12.0615086 C11.3039583,9.71613714 9.41895833,10.5947657 7.68379167,11.0411657 C6.95879167,11.2301181 5.00854167,11.9197943 4.462375,12.1370895 L3.672125,5.58988952 L15.199625,5.58988952 M13.510375,5.58988952 L15.199625,5.58988952 M15.199625,0.639337143 L13.510375,0.639337143 M11.821125,0.639337143 L2.533875,0.639337143 C1.134625,0.639337143 -0.00120833333,1.74707048 -0.00120833333,3.11461333 C-0.00120833333,4.28848 0.839791667,5.27339429 1.96354167,5.5261181 C2.13029167,6.92200381 4.72820833,28.417699 4.897375,29.8135848 C5.04479167,31.0606705 6.12745833,31.9983467 7.413125,31.9983467 L21.2992917,31.9983467 C22.5825417,31.9983467 23.6627917,31.0606705 23.8150417,29.8135848 L26.748875,5.5261181 C27.8557083,5.28048 28.7112083,4.30737524 28.7112083,3.11461333 C28.7112083,1.74943238 27.575375,0.639337143 26.176125,0.639337143 L16.888875,0.639337143" id="Fill-1" fill="#FFFFFF" mask="url(#mask-2)"></path>
                            </g>
                            <path d="M24.59695,24.6315789 L4.17039055,24.6315789 C2.7421291,23.9473684 2.30154676,21.8947368 2.72760441,20.342201 C2.93095011,19.11311 4.05903457,18.2796172 5.25732171,18.4736842 C5.62043903,18.5333971 5.96176931,18.2796172 6.01986808,17.9064115 C6.05375903,17.6899522 5.98597713,17.4734928 5.83588864,17.3167464 C4.3519492,15.7915789 4.85063032,13.8956938 5.72937422,12.738756 C6.60811813,11.5843062 8.25909153,10.6886124 9.68493219,11.5420096 C10.0020546,11.7335885 10.408746,11.6266029 10.597567,11.3031579 C10.6580866,11.1961722 10.6895568,11.0717703 10.6895568,10.9473684 C10.6895568,6.32210526 12.3792627,2.34124402 14.5386003,1.51770335 C14.2577896,3.57033493 14.4901847,5.20497608 15.2018946,6.09569378 C15.5577496,6.56593301 16.1024256,6.84210526 16.6785717,6.84210526 C18.5183661,6.84210526 20.0071471,8.3722488 20.0071471,10.2631579 C20.0071471,10.6413397 20.3097449,10.9473684 20.675283,10.9473684 C21.7985259,10.9946411 22.8007297,11.6838278 23.2703614,12.7337799 C23.9384972,14.0599043 24.0425909,15.8114833 23.4494993,16.7221053 C23.241312,17.03311 23.318777,17.4585646 23.6213748,17.6750239 C23.7061022,17.7347368 23.807775,17.7745455 23.9118686,17.7894737 C25.519268,17.9934928 26.7127135,19.4216268 26.6667187,21.0886124 C26.7054512,22.5789474 26.0010036,24.3031579 24.59695,24.6315789 M24.6695734,26 L24.8027165,26 C26.9547917,25.5546411 28.051406,23.1263158 27.9981488,21.058756 C28.0368814,19.0583732 26.8022825,17.2644976 24.9552257,16.6325359 C25.3667587,15.1073684 25.1852,13.4801914 24.4492823,12.089378 C23.8440867,10.8005742 22.6772698,9.88497608 21.3095279,9.6262201 C20.997247,7.24516746 19.0170472,5.46870813 16.6785717,5.47368421 C16.4994338,5.47617225 16.3323999,5.38660287 16.2283062,5.23483254 C15.8070901,4.70736842 15.5214379,3.27177033 16.0007527,0.821052632 C16.0733762,0.450334928 15.8434019,0.089569378 15.4827053,0.0124401914 C15.4391313,0.00497607656 15.3931364,0 15.3495623,0 C12.1734962,0 9.65104124,4.28937799 9.3581266,9.93473684 C7.91291969,9.63617225 5.97145244,10.52689 5.36383613,11.1389474 C4.80947702,11.6962679 4.25269714,12.4874641 4.03240597,13 C3.81211479,13.5125359 3.37395323,15.8687081 4.03240597,17.1799043 C2.73002519,17.5456459 2.12967123,18.3990431 1.43732755,19.9714833 C0.742563081,21.5464115 0.655414925,24.6315789 2.84380195,26" id="Fill-4" fill="#FFFFFF"></path>
                        </g>
                    </g>
                </g>
            </g>
        </g>
    </g>
</svg>