<?xml version="1.0" encoding="UTF-8"?>
<svg width="36px" height="44px" viewBox="0 0 36 44" version="1.1" xmlns="http://www.w3.org/2000/svg" xmlns:xlink="http://www.w3.org/1999/xlink">
    <!-- Generator: Sketch 51.3 (57544) - http://www.bohemiancoding.com/sketch -->
    <title>fruit_tea_cup</title>
    <desc>Created with Sketch.</desc>
    <defs>
        <polygon id="path-1" points="0.28855 0.269622222 28.9975833 0.269622222 28.9975833 43.9982889 0.28855 43.9982889"></polygon>
        <polygon id="path-3" points="0 0.04925 14.9507692 0.04925 14.9507692 15 0 15"></polygon>
        <polygon id="path-5" points="0 0.04925 14.9507692 0.04925 14.9507692 15 0 15"></polygon>
    </defs>
    <g id="Page-1" stroke="none" stroke-width="1" fill="none" fill-rule="evenodd">
        <g id="Desktop-HD" transform="translate(-252.000000, -2105.000000)">
            <g id="menu" transform="translate(0.000000, 1426.000000)">
                <g id="bubble-tea-group" transform="translate(252.000000, 679.000000)">
                    <g id="header">
                        <g id="fruit_tea_cup">
                            <path d="M14.5,29 C14.2242857,29 14,29.2234957 14,29.5014327 C14,29.7765043 14.2242857,30 14.5,30 C14.7757143,30 15,29.7765043 15,29.5014327 C15,29.2234957 14.7757143,29 14.5,29" id="Fill-1" fill="#FFFFFF"></path>
                            <g id="Group-5" transform="translate(7.000000, 0.000000)">
                                <mask id="mask-2" fill="white">
                                    <use xlink:href="#path-1"></use>
                                </mask>
                                <g id="Clip-4"></g>
                                <path d="M27.3093,14.1051778 C27.3093,14.5769556 26.9323,14.9607333 26.4634667,14.9607333 L2.82121667,14.9607333 C2.3548,14.9607333 1.9778,14.5745111 1.9778,14.1051778 C1.9778,13.6334 2.3548,13.2496222 2.82121667,13.2496222 L26.4634667,13.2496222 C26.9298833,13.2496222 27.3093,13.6358444 27.3093,14.1051778 Z M8.87738333,42.2920667 L7.70046667,42.2920667 C7.2703,42.2920667 6.91263333,41.9669556 6.86188333,41.5391778 L4.95513333,25.2029556 C5.49646667,24.9731778 6.02088333,24.7654 6.52113333,24.5820667 L6.69513333,26.1758444 C6.7483,26.6451778 7.16638333,26.9849556 7.62796667,26.9311778 C8.09196667,26.8798444 8.42788333,26.4569556 8.37471667,25.9876222 L8.15963333,24.0320667 C9.42355,23.6556222 10.4578833,23.4796222 11.2408833,23.5016222 C12.7198833,23.5431778 13.7542167,24.2374 14.9746333,25.0734 C16.3448833,26.0169556 17.6861333,26.9165111 19.7088833,26.9165111 C20.9897167,26.9165111 22.5194667,26.5327333 24.2643,25.7700667 L22.4252167,41.5391778 C22.3744667,41.9669556 22.0143833,42.2920667 21.5866333,42.2920667 L13.6527167,42.2920667 L8.87738333,42.2920667 Z M12.1084667,21.8711778 C11.8402167,21.8271778 11.56955,21.8002889 11.2892167,21.7929556 C10.3974667,21.7685111 9.28338333,21.9396222 7.97113333,22.3087333 L7.62313333,19.1358444 C7.57238333,18.6665111 7.1543,18.3316222 6.6903,18.3805111 C6.2263,18.4342889 5.8928,18.8547333 5.94355,19.3240667 L6.33021667,22.8367333 C5.82271667,23.0176222 5.29588333,23.2205111 4.74971667,23.4405111 L3.95705,16.6669556 L12.1084667,16.6669556 L12.1084667,21.8711778 Z M25.3276333,16.6669556 L24.4963,23.7851778 C22.5943833,24.7189556 20.9462167,25.2102889 19.7088833,25.2102889 C18.6842167,25.2102889 17.8818833,24.8778444 17.1762167,24.4745111 L17.1762167,16.6669556 L25.3276333,16.6669556 Z M15.4869667,16.6669556 L15.4869667,23.3647333 C14.96255,23.0102889 14.41155,22.6631778 13.7977167,22.3869556 L13.7977167,16.6669556 L15.4869667,16.6669556 Z M13.7977167,11.5434 L15.4869667,11.5434 L15.4869667,1.97584444 L13.7977167,1.97584444 L13.7977167,11.5434 Z M16.3328,0.269622222 L12.9543,0.269622222 C12.4878833,0.269622222 12.1084667,0.650955556 12.1084667,1.12028889 L12.1084667,11.5434 L2.82121667,11.5434 C1.42196667,11.5434 0.28855,12.6898444 0.28855,14.1051778 C0.28855,15.3200667 1.12713333,16.3394 2.25088333,16.6009556 C2.41763333,18.0456222 5.01555,40.2925111 5.18471667,41.7371778 C5.33455,43.0278444 6.4148,43.9982889 7.70046667,43.9982889 L21.5866333,43.9982889 C22.8698833,43.9982889 23.95255,43.0278444 24.1023833,41.7396222 L27.0362167,16.6009556 C28.14305,16.3442889 28.99855,15.3396222 28.99855,14.1051778 C28.99855,12.6922889 27.8627167,11.5434 26.4634667,11.5434 L17.1762167,11.5434 L17.1762167,1.12028889 C17.1762167,0.650955556 16.7968,0.269622222 16.3328,0.269622222 Z" id="Fill-3" fill="#FFFFFF" mask="url(#mask-2)"></path>
                            </g>
                            <g id="lemon1" transform="translate(0.000000, 4.000000)">
                                <path d="M3.72584615,4.64042308 C2.72469231,5.80003846 2.17103846,7.21484615 2.06565385,8.65696154 L7.74219231,8.65696154 L3.72584615,4.64042308 Z" id="Fill-1" fill="#FEFEFE"></path>
                                <g id="Group-5" transform="translate(0.000000, 0.143077)">
                                    <mask id="mask-4" fill="white">
                                        <use xlink:href="#path-3"></use>
                                    </mask>
                                    <g id="Clip-4"></g>
                                    <path d="M14.9507692,2.32675 C13.3044231,0.854442308 11.2019231,0.04925 8.97538462,0.04925 C6.57807692,0.04925 4.32423077,0.982903846 2.62884615,2.67790385 C0.933653846,4.37328846 0,6.62713462 0,9.02444231 C0,11.2509808 0.805192308,13.3536731 2.27769231,15.0000192 L3.00192308,14.2757885 C1.72153846,12.8232885 1.02173077,10.9779038 1.02173077,9.02444231 C1.02173077,6.90001923 1.84923077,4.90290385 3.35134615,3.40040385 C4.85346154,1.89809615 6.85096154,1.07098077 8.97538462,1.07098077 C10.9286538,1.07098077 12.7742308,1.77059615 14.2267308,3.05117308 L14.9507692,2.32675 Z" id="Fill-3" fill="#FEFEFE" mask="url(#mask-4)"></path>
                                </g>
                                <path d="M13.5026538,3.91796154 C12.3432308,2.91680769 10.9282308,2.36334615 9.48630769,2.25757692 L9.48630769,7.9345 L13.5026538,3.91796154 Z" id="Fill-6" fill="#FEFEFE"></path>
                                <path d="M8.46471154,2.25761538 C7.02259615,2.36338462 5.60798077,2.91684615 4.44836538,3.918 L8.46471154,7.93453846 L8.46471154,2.25761538 Z" id="Fill-8" fill="#FEFEFE"></path>
                                <path d="M3.72584615,13.6948462 L7.74219231,9.6785 L2.06565385,9.6785 C2.17103846,11.1204231 2.7245,12.5354231 3.72584615,13.6948462" id="Fill-10" fill="#FEFEFE"></path>
                            </g>
                            <g id="lemon2" transform="translate(21.674593, 41.174593) rotate(-315.000000) translate(-21.674593, -41.174593) translate(14.174593, 33.578439)">
                                <path d="M3.72584615,4.64042308 C2.72469231,5.80003846 2.17103846,7.21484615 2.06565385,8.65696154 L7.74219231,8.65696154 L3.72584615,4.64042308 Z" id="Fill-1" fill="#FEFEFE"></path>
                                <g id="Group-5" transform="translate(0.000000, 0.143077)">
                                    <mask id="mask-6" fill="white">
                                        <use xlink:href="#path-5"></use>
                                    </mask>
                                    <g id="Clip-4"></g>
                                    <path d="M14.9507692,2.32675 C13.3044231,0.854442308 11.2019231,0.04925 8.97538462,0.04925 C6.57807692,0.04925 4.32423077,0.982903846 2.62884615,2.67790385 C0.933653846,4.37328846 0,6.62713462 0,9.02444231 C0,11.2509808 0.805192308,13.3536731 2.27769231,15.0000192 L3.00192308,14.2757885 C1.72153846,12.8232885 1.02173077,10.9779038 1.02173077,9.02444231 C1.02173077,6.90001923 1.84923077,4.90290385 3.35134615,3.40040385 C4.85346154,1.89809615 6.85096154,1.07098077 8.97538462,1.07098077 C10.9286538,1.07098077 12.7742308,1.77059615 14.2267308,3.05117308 L14.9507692,2.32675 Z" id="Fill-3" fill="#FEFEFE" mask="url(#mask-6)"></path>
                                </g>
                                <path d="M13.5026538,3.91796154 C12.3432308,2.91680769 10.9282308,2.36334615 9.48630769,2.25757692 L9.48630769,7.9345 L13.5026538,3.91796154 Z" id="Fill-6" fill="#FEFEFE"></path>
                                <path d="M8.46471154,2.25761538 C7.02259615,2.36338462 5.60798077,2.91684615 4.44836538,3.918 L8.46471154,7.93453846 L8.46471154,2.25761538 Z" id="Fill-8" fill="#FEFEFE"></path>
                                <path d="M3.72584615,13.6948462 L7.74219231,9.6785 L2.06565385,9.6785 C2.17103846,11.1204231 2.7245,12.5354231 3.72584615,13.6948462" id="Fill-10" fill="#FEFEFE"></path>
                            </g>
                        </g>
                    </g>
                </g>
            </g>
        </g>
    </g>
</svg>