<?xml version="1.0" encoding="UTF-8"?>
<svg width="70px" height="72px" viewBox="0 0 70 72" version="1.1" xmlns="http://www.w3.org/2000/svg" xmlns:xlink="http://www.w3.org/1999/xlink">
    <!-- Generator: Sketch 51.3 (57544) - http://www.bohemiancoding.com/sketch -->
    <title>logo</title>
    <desc>Created with Sketch.</desc>
    <defs>
        <linearGradient x1="50%" y1="97.2498194%" x2="50%" y2="2.94902991e-15%" id="linearGradient-1">
            <stop stop-color="#F26527" offset="0%"></stop>
            <stop stop-color="#F08C2A" offset="100%"></stop>
        </linearGradient>
        <path d="M6.87294118,1.98433155 C1.46533937,5.42363636 0.33459276,1.98433155 0.33459276,1.98433155 L0.33459276,19.094492 C0.33459276,20.6962834 1.7838009,21.9510963 3.4239819,21.9510963 L9.95920814,21.9510963 C11.5999095,21.9510963 13.3431222,20.6962834 13.3431222,19.094492 L13.3431222,1.98433155 C13.3431222,1.98433155 13.3165837,0.17171123 11.4000905,0.17171123 C10.4415837,0.17171123 9.01006787,0.62486631 6.87294118,1.98433155" id="path-2"></path>
        <polygon id="path-4" points="0 0.00941198632 69.9979412 0.00941198632 69.9979412 71.1198445 0 71.1198445"></polygon>
        <linearGradient x1="50%" y1="0%" x2="50%" y2="97.2498194%" id="linearGradient-6">
            <stop stop-color="#F26527" offset="0%"></stop>
            <stop stop-color="#F08C2A" offset="100%"></stop>
        </linearGradient>
        <path d="M0.33459276,1.98433155 L0.33459276,19.094492 C0.33459276,20.6962834 1.7838009,21.9510963 3.42502262,21.9510963 L9.96024887,21.9510963 C11.6004299,21.9510963 13.3431222,20.6962834 13.3431222,19.094492 L13.3431222,1.98433155 C13.3431222,1.98433155 12.2123756,5.42363636 6.80477376,1.98433155 C4.66764706,0.62486631 3.23665158,0.17171123 2.2781448,0.17171123 C0.361131222,0.17171123 0.33459276,1.98433155 0.33459276,1.98433155" id="path-7"></path>
    </defs>
    <g id="Page-1" stroke="none" stroke-width="1" fill="none" fill-rule="evenodd">
        <g id="Desktop-HD" transform="translate(-685.000000, -8.000000)">
            <g id="logo" transform="translate(685.000000, 8.000000)">
                <g id="Group-11">
                    <path d="M32.9432132,42.4630129 L32.9257132,42.4630129 C32.2766691,42.4630129 31.7583603,41.8062654 31.767625,41.1469035 L32.056375,21.1940154 L25.4089485,14.2186877 C24.9565221,13.7459969 24.9673309,12.9768284 25.432625,12.5172098 C25.8979191,12.0575911 26.6421838,12.0617742 27.0946103,12.534988 L34.4214485,20.190593 L34.1182868,41.1835056 C34.1085074,41.8371158 33.5840221,42.4630129 32.9432132,42.4630129" id="Fill-4" fill="#fff"></path>
                    <path d="M53.8815,38.5712088 C53.1387794,39.3623386 52.2514265,39.8486245 51.1556176,39.8486245 L48.4884118,39.8486245 C47.7101765,39.8486245 47.2829706,39.3623386 47.2829706,38.5712088 L47.2428235,38.135643 L47.2428235,30.0925778 L47.2428235,29.7668185 C47.2428235,28.5856142 47.7184118,27.6632396 48.3509853,27.0054463 C49.1117206,26.2153624 50.0423088,25.8205818 51.1381176,25.8205818 C52.2344412,25.8205818 53.1305441,26.2153624 53.87275,27.0059692 C54.6154706,27.7960532 54.9634118,28.9636624 54.9634118,30.5087968 L54.9634118,34.7274582 L54.9634118,34.9721698 L54.9634118,34.9773987 C54.9634118,36.5220103 54.6242206,37.7816478 53.8815,38.5712088 Z M58.9678235,30.886322 C58.9678235,29.3772669 58.7495882,28.0569743 58.2894412,26.9249215 C57.8303235,25.7939145 57.2342941,24.8506243 56.4915735,24.0960968 C55.7493676,23.3420921 54.9124559,22.7763271 53.9751765,22.3988019 C53.0384118,22.0217996 52.0934118,21.8325141 51.1386324,21.8325141 C50.1488529,21.8325141 49.1853235,22.0217996 48.2480441,22.3988019 C47.3117941,22.7763271 46.4717941,23.3420921 45.7290735,24.0960968 C44.9868676,24.8506243 44.3892941,25.7939145 43.9466471,26.9249215 C43.5050294,28.0569743 43.2785588,29.3772669 43.2785588,30.886322 C43.2785588,30.886322 43.2759853,48.6535377 43.2785588,49.0849204 C43.1725294,50.2661247 42.8446618,51.1895452 42.2120882,51.8473384 C41.4508382,52.6374224 40.5238529,53.0274969 39.4285588,53.0274969 C39.3565,53.0274969 26.38025,53.0306343 26.3092206,53.0274969 C25.2937059,52.9788683 24.4017206,52.5856565 23.7078971,51.8473384 C22.9651765,51.0572545 22.5369412,49.8896453 22.5369412,48.3445108 L22.5369412,23.7792266 C22.5369412,22.9891426 22.2636324,22.5933163 21.4864265,22.5933163 L19.8419412,22.5933163 C19.0637059,22.5933163 18.4192941,22.9891426 18.4192941,23.7792266 L18.4192941,47.9669856 C18.4192941,49.4760408 18.7765,50.7963333 19.2366471,51.9283861 C19.6957647,53.0593931 20.3612794,54.0026833 21.104,54.756688 C21.8467206,55.5112155 22.7181176,56.0769805 23.6553971,56.4545057 C24.5237059,56.803795 25.4156912,56.9915118 26.2994412,57.0176562 C26.3694412,57.0192249 39.3492941,57.0176562 39.4192941,57.0176562 C40.4090735,57.0176562 41.3782647,56.8315081 42.3155441,56.4545057 C43.2523088,56.0769805 44.0953971,55.5112155 44.8376029,54.756688 C45.5803235,54.0026833 46.1547353,53.0593931 46.5973824,51.9283861 C47.039,50.7963333 47.2428235,49.4760408 47.2428235,47.9669856 L47.2428235,45.0069159 L47.2428235,44.7967149 C47.2428235,44.0066309 47.7101765,43.5088414 48.4884118,43.5088414 L50.9816471,43.5088414 C51.9364265,43.5088414 52.8912059,43.3922374 53.8459853,43.0147121 C54.8007647,42.6382327 55.6495147,42.108547 56.3922353,41.3540195 C57.1344412,40.598969 57.7356176,39.6745028 58.19525,38.54245 C58.5745882,37.6085718 58.7840735,36.5528607 58.8504706,35.3617215 C58.8551029,35.1143954 58.8504706,34.9831505 58.8504706,34.7253666 L58.9678235,30.886322 Z" id="Fill-6" fill="#fff"></path>
                    <g id="Group-10">
                        <mask id="mask-5" fill="white">
                            <use xlink:href="#path-4"></use>
                        </mask>
                        <g id="Clip-9"></g>
                        <path d="M34.9989706,3.68923719 C17.6976471,3.68923719 3.6225,17.9886588 3.6225,35.5644975 C3.6225,53.1408591 17.6976471,67.4402807 34.9989706,67.4402807 C52.2997794,67.4402807 66.3754412,53.1408591 66.3754412,35.5644975 C66.3754412,17.9886588 52.2997794,3.68923719 34.9989706,3.68923719 M34.9989706,71.1198445 C15.7005882,71.1198445 0,55.169665 0,35.5644975 C0,15.95933 15.7005882,0.00915054225 34.9989706,0.00915054225 C54.2973529,0.00915054225 69.9979412,15.95933 69.9979412,35.5644975 C69.9979412,55.169665 54.2973529,71.1198445 34.9989706,71.1198445" id="Fill-8" fill="#fff" mask="url(#mask-5)"></path>
                    </g>
                </g>
                <g id="Group-14" transform="translate(26.176471, 26.470588)">
                    <mask id="mask-8" fill="white">
                        <use xlink:href="#path-7"></use>
                    </mask>
                    <use id="Clip-13" fill="#fff" xlink:href="#path-7"></use>
                </g>
            </g>
        </g>
    </g>
</svg>