<?xml version="1.0" encoding="UTF-8"?>
<svg width="120px" height="177px" viewBox="0 0 120 177" version="1.1" xmlns="http://www.w3.org/2000/svg" xmlns:xlink="http://www.w3.org/1999/xlink">
    <!-- Generator: Sketch 51.3 (57544) - http://www.bohemiancoding.com/sketch -->
    <title>logo_full</title>
    <desc>Created with Sketch.</desc>
    <defs>
        <linearGradient x1="50%" y1="97.2498194%" x2="50%" y2="2.94902991e-15%" id="linearGradient-1">
            <stop stop-color="#F26527" offset="0%"></stop>
            <stop stop-color="#F08C2A" offset="100%"></stop>
        </linearGradient>
        <path d="M11.684,3.37336364 C2.49107692,9.22018182 0.568807692,3.37336364 0.568807692,3.37336364 L0.568807692,32.4606364 C0.568807692,35.1836818 3.03246154,37.3168636 5.82076923,37.3168636 L16.9306538,37.3168636 C19.7198462,37.3168636 22.6833077,35.1836818 22.6833077,32.4606364 L22.6833077,3.37336364 C22.6833077,3.37336364 22.6381923,0.291909091 19.3801538,0.291909091 C17.7506923,0.291909091 15.3171154,1.06227273 11.684,3.37336364" id="path-2"></path>
        <polygon id="path-4" points="0 0.0160003767 118.9965 0.0160003767 118.9965 120.903736 0 120.903736"></polygon>
        <linearGradient x1="50%" y1="0%" x2="50%" y2="97.2498194%" id="linearGradient-6">
            <stop stop-color="#F26527" offset="0%"></stop>
            <stop stop-color="#F08C2A" offset="100%"></stop>
        </linearGradient>
        <path d="M0.568807692,3.37336364 L0.568807692,32.4606364 C0.568807692,35.1836818 3.03246154,37.3168636 5.82253846,37.3168636 L16.9324231,37.3168636 C19.7207308,37.3168636 22.6833077,35.1836818 22.6833077,32.4606364 L22.6833077,3.37336364 C22.6833077,3.37336364 20.7610385,9.22018182 11.5681154,3.37336364 C7.935,1.06227273 5.50230769,0.291909091 3.87284615,0.291909091 C0.613923077,0.291909091 0.568807692,3.37336364 0.568807692,3.37336364" id="path-7"></path>
        <polygon id="path-9" points="0.416540952 0.161639024 13.8196267 0.161639024 13.8196267 38 0.416540952 38"></polygon>
    </defs>
    <g id="Page-1" stroke="none" stroke-width="1" fill="none" fill-rule="evenodd">
        <g id="Desktop-HD" transform="translate(-422.000000, -1037.000000)">
            <g id="vision" transform="translate(0.000000, 724.000000)">
                <g id="logo_full" transform="translate(422.000000, 313.000000)">
                    <g id="Group-3" transform="translate(45.000000, 45.000000)">
                        <mask id="mask-3" fill="white">
                            <use xlink:href="#path-2"></use>
                        </mask>
                        <use id="Clip-2" fill="url(#linearGradient-1)" xlink:href="#path-2"></use>
                    </g>
                    <g id="Group-11" transform="translate(0.500000, 0.000000)">
                        <path d="M56.0034625,72.1871219 L55.9737125,72.1871219 C54.8703375,72.1871219 53.9892125,71.0706512 54.0049625,69.9497359 L54.4958375,36.0298261 L43.1952125,24.1717691 C42.4260875,23.3681947 42.4444625,22.0606083 43.2354625,21.2792566 C44.0264625,20.4979049 45.2917125,20.5050161 46.0608375,21.3094795 L58.5164625,34.3240082 L58.0010875,70.0119596 C57.9844625,71.1230968 57.0928375,72.1871219 56.0034625,72.1871219" id="Fill-4" fill="#020303"></path>
                        <path d="M91.59855,65.571055 C90.335925,66.9159756 88.827425,67.7426617 86.96455,67.7426617 L82.4303,67.7426617 C81.1073,67.7426617 80.38105,66.9159756 80.38105,65.571055 L80.3128,64.8305931 L80.3128,51.1573823 L80.3128,50.6035915 C80.3128,48.5955442 81.1213,47.0275073 82.196675,45.9092587 C83.489925,44.566116 85.071925,43.8949891 86.9348,43.8949891 C88.79855,43.8949891 90.321925,44.566116 91.583675,45.9101476 C92.8463,47.2532904 93.4378,49.238226 93.4378,51.8649545 L93.4378,59.0366789 L93.4378,59.4526887 L93.4378,59.4615778 C93.4378,62.0874174 92.861175,64.2288012 91.59855,65.571055 Z M100.2453,52.5067474 C100.2453,49.9413537 99.8743,47.6968564 99.09205,45.7723666 C98.31155,43.8496547 97.2983,42.2460614 96.035675,40.9633645 C94.773925,39.6815565 93.351175,38.7197561 91.7578,38.0779632 C90.1653,37.4370593 88.5588,37.1152739 86.935675,37.1152739 C85.25305,37.1152739 83.61505,37.4370593 82.021675,38.0779632 C80.43005,38.7197561 79.00205,39.6815565 77.739425,40.9633645 C76.477675,42.2460614 75.4618,43.8496547 74.7093,45.7723666 C73.95855,47.6968564 73.57355,49.9413537 73.57355,52.5067474 C73.57355,52.5067474 73.569175,82.7110141 73.57355,83.4443647 C73.3933,85.452412 72.835925,87.0222268 71.76055,88.1404753 C70.466425,89.483618 68.89055,90.1467448 67.02855,90.1467448 C66.90605,90.1467448 44.846425,90.1520782 44.725675,90.1467448 C42.9993,90.0640762 41.482925,89.395616 40.303425,88.1404753 C39.0408,86.7973326 38.3128,84.8123969 38.3128,82.1856684 L38.3128,40.4246852 C38.3128,39.0815424 37.848175,38.4086377 36.526925,38.4086377 L33.7313,38.4086377 C32.4083,38.4086377 31.3128,39.0815424 31.3128,40.4246852 L31.3128,81.5438755 C31.3128,84.1092693 31.92005,86.3537666 32.7023,88.2782563 C33.4828,90.2009683 34.614175,91.8045616 35.8768,93.0863695 C37.139425,94.3690664 38.6208,95.3308668 40.214175,95.9726597 C41.6903,96.5664515 43.206675,96.8855701 44.70905,96.9300156 C44.82805,96.9326823 66.8938,96.9300156 67.0128,96.9300156 C68.695425,96.9300156 70.34305,96.6135637 71.936425,95.9726597 C73.528925,95.3308668 74.962175,94.3690664 76.223925,93.0863695 C77.48655,91.8045616 78.46305,90.2009683 79.21555,88.2782563 C79.9663,86.3537666 80.3128,84.1092693 80.3128,81.5438755 L80.3128,76.5117571 L80.3128,76.1544153 C80.3128,74.8112726 81.1073,73.9650304 82.4303,73.9650304 L86.6688,73.9650304 C88.291925,73.9650304 89.91505,73.7668035 91.538175,73.1250107 C93.1613,72.4849956 94.604175,71.5845299 95.8668,70.3018331 C97.12855,69.0182473 98.15055,67.4466547 98.931925,65.522165 C99.5768,63.934572 99.932925,62.1398631 100.0458,60.1149265 C100.053675,59.6944722 100.0458,59.4713558 100.0458,59.0331233 L100.2453,52.5067474 Z" id="Fill-6" fill="#020303"></path>
                        <g id="Group-10">
                            <mask id="mask-5" fill="white">
                                <use xlink:href="#path-4"></use>
                            </mask>
                            <g id="Clip-9"></g>
                            <path d="M59.49825,6.27170323 C30.086,6.27170323 6.15825,30.58072 6.15825,60.4596458 C6.15825,90.3394604 30.086,114.648477 59.49825,114.648477 C88.909625,114.648477 112.83825,90.3394604 112.83825,60.4596458 C112.83825,30.58072 88.909625,6.27170323 59.49825,6.27170323 M59.49825,120.903736 C26.691,120.903736 0,93.7884305 0,60.4596458 C0,27.130861 26.691,0.0155559218 59.49825,0.0155559218 C92.3055,0.0155559218 118.9965,27.130861 118.9965,60.4596458 C118.9965,93.7884305 92.3055,120.903736 59.49825,120.903736" id="Fill-8" fill="#020303" mask="url(#mask-5)"></path>
                        </g>
                    </g>
                    <g id="Group-14" transform="translate(45.000000, 45.000000)">
                        <mask id="mask-8" fill="white">
                            <use xlink:href="#path-7"></use>
                        </mask>
                        <use id="Clip-13" fill="url(#linearGradient-6)" xlink:href="#path-7"></use>
                    </g>
                    <g id="Group-26" transform="translate(17.000000, 139.000000)">
                        <path d="M14.3274667,1.2154439 L14.3274667,2.65202927 C14.3274667,3.35456585 13.9945143,3.70583415 13.3312381,3.70583415 L9.84487619,3.70583415 C9.17984762,3.70583415 8.84864762,4.05802927 8.84864762,4.75963902 L8.84864762,36.6110537 C8.84864762,37.3135902 8.51569524,37.6648585 7.85241905,37.6648585 L6.4487619,37.6648585 C5.78373333,37.6648585 5.45253333,37.3135902 5.45253333,36.6110537 L5.45253333,4.75963902 C5.45253333,4.05802927 5.12045714,3.70583415 4.45630476,3.70583415 L1.15131429,3.70583415 C0.486285714,3.70583415 0.155085714,3.35456585 0.155085714,2.65202927 L0.155085714,1.2154439 C0.155085714,0.512907317 0.486285714,0.161639024 1.15131429,0.161639024 L13.3312381,0.161639024 C13.9945143,0.161639024 14.3274667,0.512907317 14.3274667,1.2154439" id="Fill-15" fill="#020303"></path>
                        <path d="M28.9975238,18.0271073 L28.9975238,19.4636927 C28.9975238,20.1671561 28.6654476,20.5174976 28.0012952,20.5174976 L22.1606095,20.5174976 C21.4964571,20.5174976 21.164381,20.8696927 21.164381,21.5713024 L21.164381,33.0667659 C21.164381,33.7693024 21.4964571,34.1205707 22.1606095,34.1205707 L30.5825524,34.1205707 C31.2458286,34.1205707 31.578781,34.471839 31.578781,35.1743756 L31.578781,36.610961 C31.578781,37.3134976 31.2458286,37.6647659 30.5825524,37.6647659 L18.7644952,37.6647659 C18.1003429,37.6647659 17.7682667,37.3134976 17.7682667,36.610961 L17.7682667,1.21535122 C17.7682667,0.513741463 18.1003429,0.161546341 18.7644952,0.161546341 L30.5825524,0.161546341 C31.2458286,0.161546341 31.578781,0.513741463 31.578781,1.21535122 L31.578781,2.65193659 C31.578781,3.3554 31.2458286,3.70574146 30.5825524,3.70574146 L22.1606095,3.70574146 C21.4964571,3.70574146 21.164381,4.05793659 21.164381,4.75954634 L21.164381,15.9194976 C21.164381,16.622961 21.4964571,16.9733024 22.1606095,16.9733024 L28.0012952,16.9733024 C28.6654476,16.9733024 28.9975238,17.3254976 28.9975238,18.0271073" id="Fill-17" fill="#020303"></path>
                        <path d="M42.6718781,13.9558244 C42.3398019,11.8482146 42.0077257,10.7944098 41.6756495,10.7944098 C41.3137829,10.7944098 40.9808305,11.8482146 40.679421,13.9558244 L39.4115733,23.2000195 C39.3213257,23.7746537 39.2757638,24.2056293 39.2757638,24.4929463 C39.2757638,25.1000195 39.5929448,25.4030927 40.2264305,25.4030927 L43.1248686,25.4030927 C43.7881448,25.4030927 44.1210971,25.1000195 44.1210971,24.4929463 C44.1210971,24.2056293 44.0755352,23.7746537 43.9852876,23.2000195 L42.6718781,13.9558244 Z M46.9284114,37.6650439 C46.3545067,37.6650439 46.0224305,37.3619707 45.9321829,36.7548976 L44.9359543,29.8574341 C44.8457067,29.2512878 44.5127543,28.9472878 43.9397257,28.9472878 L39.4115733,28.9472878 C38.8376686,28.9472878 38.5064686,29.2512878 38.4153448,29.8574341 L37.51024,36.7548976 C37.4191162,37.3619707 37.08704,37.6650439 36.5140114,37.6650439 L35.2917257,37.6650439 C34.6266971,37.6650439 34.2954971,37.3295317 34.2954971,36.6585073 C34.2954971,36.6269951 34.3025067,36.5630439 34.3182781,36.4675805 C34.3322971,36.3711902 34.3699733,36.0681171 34.4313067,35.5574341 L39.4115733,1.07197073 C39.5026971,0.46582439 39.8338971,0.16182439 40.4078019,0.16182439 L43.034621,0.16182439 C43.6067733,0.16182439 43.9397257,0.46582439 44.0299733,1.07197073 L48.9655543,35.5574341 C49.0260114,36.0681171 49.0636876,36.3711902 49.0785829,36.4675805 C49.0934781,36.5630439 49.1013638,36.6269951 49.1013638,36.6585073 C49.1013638,37.3295317 48.7692876,37.6650439 48.1051352,37.6650439 L46.9284114,37.6650439 Z" id="Fill-19" fill="#020303"></path>
                        <g id="Group-23" transform="translate(60.457143, 0.000000)">
                            <mask id="mask-10" fill="white">
                                <use xlink:href="#path-9"></use>
                            </mask>
                            <g id="Clip-22"></g>
                            <path d="M0.416540952,1.2154439 C0.416540952,0.512907317 0.748617143,0.161639024 1.41276952,0.161639024 L2.81642667,0.161639024 C3.48057905,0.161639024 3.81265524,0.512907317 3.81265524,1.2154439 L3.81265524,30.2882244 C3.81265524,31.6617854 4.12896,32.6998341 4.7633219,33.4014439 C5.39768381,34.1049073 6.18187429,34.4552488 7.11764571,34.4552488 C8.05341714,34.4552488 8.84549333,34.1049073 9.49475048,33.4014439 C10.1440076,32.6998341 10.4690743,31.6617854 10.4690743,30.2882244 L10.4690743,1.2154439 C10.4690743,0.512907317 10.8002743,0.161639024 11.4644267,0.161639024 L12.8233981,0.161639024 C13.4866743,0.161639024 13.8196267,0.512907317 13.8196267,1.2154439 L13.8196267,29.953639 C13.8196267,31.294761 13.6303695,32.4681268 13.2536076,33.4737366 C12.8750933,34.4793463 12.3704076,35.3181268 11.7369219,35.9882244 C11.10256,36.6592488 10.38496,37.1615902 9.58587429,37.4971024 C8.78591238,37.8326146 7.96316952,38.0003707 7.11764571,38.0003707 C6.30278857,38.0003707 5.49494095,37.8326146 4.69585524,37.4971024 C3.89501714,37.1615902 3.17916952,36.6592488 2.54480762,35.9882244 C1.91044571,35.3181268 1.3969981,34.4793463 1.00534095,33.4737366 C0.612807619,32.4681268 0.416540952,31.294761 0.416540952,29.953639 L0.416540952,1.2154439 Z" id="Fill-21" fill="#020303" mask="url(#mask-10)"></path>
                        </g>
                        <path d="M82.5171657,3.7061122 C81.8530133,3.7061122 81.5209371,4.05738049 81.5209371,4.75991707 L81.5209371,15.9198683 C81.5209371,16.6224049 81.8530133,16.9736732 82.5171657,16.9736732 L84.6454324,16.9736732 C85.5812038,16.9736732 86.3662705,16.6224049 86.9997562,15.9198683 C87.6341181,15.2173317 87.9504229,14.1802098 87.9504229,12.8066488 L87.9504229,7.87313659 C87.9504229,6.50050244 87.6341181,5.46245366 86.9997562,4.75991707 C86.3662705,4.05738049 85.5812038,3.7061122 84.6454324,3.7061122 L82.5171657,3.7061122 Z M81.5209371,36.6113317 C81.5209371,37.3138683 81.188861,37.6651366 80.5247086,37.6651366 L79.1210514,37.6651366 C78.456899,37.6651366 78.125699,37.3138683 78.125699,36.6113317 L78.125699,1.21572195 C78.125699,0.513185366 78.456899,0.161917073 79.1210514,0.161917073 L84.6454324,0.161917073 C85.4602895,0.161917073 86.2760229,0.329673171 87.09088,0.665185366 C87.9057371,0.999770732 88.6294705,1.50303902 89.2638324,2.17313659 C89.8981943,2.84416098 90.4107657,3.68201463 90.803299,4.68762439 C91.1949562,5.69416098 91.392099,6.86752683 91.392099,8.20864878 L91.392099,12.4711366 C91.392099,13.8122585 91.1949562,14.9856244 90.803299,15.9912341 C90.4107657,16.9977707 89.8981943,17.8356244 89.2638324,18.5066488 C88.6294705,19.1767463 87.9057371,19.6800146 87.09088,20.0146 C86.2760229,20.3501122 85.4602895,20.5178683 84.6454324,20.5178683 L82.5171657,20.5178683 C81.8530133,20.5178683 81.5209371,20.8700634 81.5209371,21.5716732 L81.5209371,36.6113317 Z" id="Fill-24" fill="#020303"></path>
                    </g>
                </g>
            </g>
        </g>
    </g>
</svg>