<?xml version="1.0" encoding="UTF-8"?>
<svg width="29px" height="44px" viewBox="0 0 29 44" version="1.1" xmlns="http://www.w3.org/2000/svg" xmlns:xlink="http://www.w3.org/1999/xlink">
    <!-- Generator: Sketch 51.3 (57544) - http://www.bohemiancoding.com/sketch -->
    <title>special_tea_cup</title>
    <desc>Created with Sketch.</desc>
    <defs>
        <polygon id="path-1" points="0 0.269622222 28.71 0.269622222 28.71 43.9982889 0 43.9982889"></polygon>
    </defs>
    <g id="Page-1" stroke="none" stroke-width="1" fill="none" fill-rule="evenodd">
        <g id="Desktop-HD" transform="translate(-738.000000, -2105.000000)">
            <g id="menu" transform="translate(0.000000, 1426.000000)">
                <g id="bubble-tea-group" transform="translate(738.000000, 679.000000)">
                    <g id="header">
                        <g id="special_tea_cup">
                            <path d="M6.99856938,29 C6.44921316,29 6,29.4469914 6,30.0028653 C6,30.5530086 6.44921316,31 6.99856938,31 C7.55078684,31 8,30.5530086 8,30.0028653 C8,29.4469914 7.55078684,29 6.99856938,29" id="Fill-1" fill="#FFFFFF"></path>
                            <g id="Group-5">
                                <mask id="mask-2" fill="white">
                                    <use xlink:href="#path-1"></use>
                                </mask>
                                <g id="Clip-4"></g>
                                <path d="M27.0219583,14.1051778 C27.0219583,14.5769556 26.6449583,14.9607333 26.176125,14.9607333 L2.533875,14.9607333 C2.06745833,14.9607333 1.69045833,14.5745111 1.69045833,14.1051778 C1.69045833,13.6334 2.06745833,13.2496222 2.533875,13.2496222 L26.176125,13.2496222 C26.6425417,13.2496222 27.0219583,13.6358444 27.0219583,14.1051778 Z M8.59004167,42.2920667 L7.413125,42.2920667 C6.985375,42.2920667 6.62529167,41.9669556 6.57454167,41.5391778 L4.66779167,25.2029556 C5.21154167,24.9731778 5.731125,24.7654 6.231375,24.5820667 L6.41020833,26.1758444 C6.45854167,26.6451778 6.87904167,26.9849556 7.340625,26.9311778 C7.804625,26.8798444 8.14054167,26.4569556 8.087375,25.9876222 L7.87229167,24.0320667 C9.13620833,23.6556222 10.168125,23.4796222 10.9535417,23.5016222 C12.4325417,23.5431778 13.466875,24.2374 14.6872917,25.0734 C16.0575417,26.0169556 17.3987917,26.9165111 19.4215417,26.9165111 C20.702375,26.9165111 22.232125,26.5327333 23.9769583,25.7700667 L22.137875,41.5391778 C22.087125,41.9669556 21.7270417,42.2920667 21.2992917,42.2920667 L13.3677917,42.2920667 L8.59004167,42.2920667 Z M11.821125,21.8711778 C11.5552917,21.8271778 11.2797917,21.8002889 11.001875,21.7929556 C10.110125,21.7685111 8.99604167,21.9396222 7.68379167,22.3087333 L7.33579167,19.1358444 C7.282625,18.6665111 6.86454167,18.3316222 6.40295833,18.3805111 C5.93895833,18.4342889 5.60545833,18.8547333 5.65620833,19.3240667 L6.04045833,22.8367333 C5.535375,23.0176222 5.00854167,23.2205111 4.462375,23.4405111 L3.672125,16.6669556 L11.821125,16.6669556 L11.821125,21.8711778 Z M25.0402917,16.6669556 L24.2089583,23.7851778 C22.3094583,24.7189556 20.658875,25.2102889 19.4215417,25.2102889 C18.396875,25.2102889 17.5945417,24.8778444 16.888875,24.4745111 L16.888875,16.6669556 L25.0402917,16.6669556 Z M15.199625,16.6669556 L15.199625,23.3647333 C14.6752083,23.0102889 14.1242083,22.6631778 13.510375,22.3869556 L13.510375,16.6669556 L15.199625,16.6669556 Z M13.510375,11.5434 L15.199625,11.5434 L15.199625,1.97584444 L13.510375,1.97584444 L13.510375,11.5434 Z M16.0430417,0.269622222 L12.6669583,0.269622222 C12.2005417,0.269622222 11.821125,0.650955556 11.821125,1.12028889 L11.821125,11.5434 L2.533875,11.5434 C1.134625,11.5434 -0.00120833333,12.6898444 -0.00120833333,14.1051778 C-0.00120833333,15.3200667 0.839791667,16.3394 1.96354167,16.6009556 C2.13029167,18.0456222 4.72820833,40.2925111 4.897375,41.7371778 C5.04479167,43.0278444 6.12745833,43.9982889 7.413125,43.9982889 L21.2992917,43.9982889 C22.5825417,43.9982889 23.6627917,43.0278444 23.8150417,41.7396222 L26.748875,16.6009556 C27.8557083,16.3442889 28.7112083,15.3396222 28.7112083,14.1051778 C28.7112083,12.6922889 27.575375,11.5434 26.176125,11.5434 L16.888875,11.5434 L16.888875,1.12028889 C16.888875,0.650955556 16.5094583,0.269622222 16.0430417,0.269622222 Z" id="Fill-3" fill="#FFFFFF" mask="url(#mask-2)"></path>
                            </g>
                            <path d="M13.1538239,31.1968992 C12.9888622,31.5461052 12.6712027,31.7888772 12.3039062,31.8427851 L9.29439628,32.2973354 L11.468109,34.5077576 C11.7353773,34.7755816 11.8569259,35.1614255 11.7987171,35.5523912 L11.2825032,38.6750215 L13.9789016,37.1969348 C14.3071745,37.0205325 14.6979257,37.0205325 15.025407,37.1993038 L17.7175627,38.6750874 L17.2033163,35.5504246 C17.1419288,35.1719011 17.2620135,34.7862713 17.5267056,34.5104983 L19.707753,32.2973218 L16.6972481,31.8429666 C16.3300647,31.7883003 16.0107059,31.5453095 15.8465062,31.197715 L14.4988241,28.355211 L13.1538239,31.1968992 Z M13.4855329,27.6554633 C13.8996534,26.7815122 15.0978789,26.7815122 15.5119995,27.6554633 L16.9106399,30.6054489 L20.0331318,31.0767044 C20.9589108,31.2168447 21.3267514,32.4008357 20.6588543,33.0860877 L18.3985841,35.3795901 L18.9320092,38.6207807 C19.0921416,39.584401 18.1215214,40.3155167 17.2928377,39.8621145 L14.4999729,38.3311234 L11.7066873,39.8623439 C10.8790502,40.3151732 9.91272596,39.5858493 10.0678448,38.6213234 L10.6031243,35.3838484 L8.34278472,33.0853595 C7.6721967,32.4026256 8.04070731,31.216478 8.96941299,31.0766758 L12.0892672,30.6054643 L13.4855329,27.6554633 Z M10.6088,35.3495208 C10.6057834,35.3698121 10.6136599,35.3948153 10.6292013,35.4103655 L10.6031243,35.3838484 L10.6088,35.3495208 Z M16.9279087,30.6418719 C16.9171704,30.6191402 16.8962462,30.6032196 16.8689168,30.599152 L16.9106399,30.6054489 L16.9279087,30.6418719 Z" id="Stroke-6" fill="#FFFFFF" fill-rule="nonzero"></path>
                        </g>
                    </g>
                </g>
            </g>
        </g>
    </g>
</svg>